<svg width="1445" height="150" viewBox="0 0 1445 150" fill="none" xmlns="http://www.w3.org/2000/svg">
<path d="M0 4.14167H28.193V62.6667L81.1362 4.14167H118.169L61.9682 62.6667L121.057 146.25H84.2169L41.8752 84.1667L28.201 98.725V146.25H0V4.14167ZM137.249 4.14167H166.367V91.4833C166.367 101.25 167.493 108.383 169.721 112.883C173.196 120.858 180.765 124.842 192.428 124.842C204.027 124.842 211.572 120.858 215.031 112.883C217.275 108.383 218.385 101.25 218.385 91.4833V4.15H247.511V91.4833C247.511 106.592 245.251 118.35 240.722 126.767C232.276 142.192 216.189 149.9 192.428 149.9C168.667 149.9 152.54 142.192 144.045 126.767C139.509 118.35 137.249 106.592 137.249 91.4833V4.14167ZM352.191 49.3583C352.191 41.9667 350.3 36.6917 346.52 33.55C342.796 30.4 337.551 28.825 330.795 28.825H304.09V70.6583H330.795C337.551 70.6583 342.796 68.9583 346.52 65.55C350.3 62.15 352.191 56.75 352.191 49.3583ZM380.577 49.1667C380.577 65.9417 376.474 77.7917 368.294 84.7333C360.106 91.675 348.41 95.15 333.208 95.15H304.09V146.233H275.615V4.15833H335.347C349.126 4.15833 360.106 7.81667 368.294 15.1417C376.482 22.475 380.577 33.8 380.577 49.1667ZM479.296 49.3583C479.296 41.9667 477.406 36.6917 473.626 33.55C469.901 30.4 464.657 28.825 457.9 28.825H431.195V70.6583H457.9C464.657 70.6583 469.901 68.9583 473.626 65.55C477.406 62.15 479.296 56.75 479.296 49.3583ZM507.682 49.1667C507.682 65.9417 503.58 77.7917 495.4 84.7333C487.211 91.675 475.516 95.15 460.321 95.15H431.195V146.233H402.721V4.15833H462.461C476.232 4.15833 487.211 7.81667 495.4 15.1417C503.588 22.475 507.682 33.8 507.682 49.1667ZM630.597 29.3083H558.019V59.475H624.645V84.1667H558.019V120.7H633.951V146.25H530.011V4.14167H630.597V29.3083ZM684.94 28.825V66.9917H717.412C723.863 66.9917 728.705 66.225 731.931 64.6833C737.642 61.9833 740.489 56.65 740.489 48.6833C740.489 40.0667 737.73 34.2833 732.204 31.3333C729.108 29.6667 724.458 28.825 718.249 28.825H684.94ZM724.209 4.14167C733.821 4.34167 741.205 5.55833 746.353 7.80833C751.46 9.97935 755.992 13.3854 759.569 17.7417C762.545 21.3333 764.902 25.325 766.639 29.6917C768.377 34.0583 769.245 39.0417 769.245 44.6333C769.245 51.3833 767.596 58.0333 764.315 64.5917C761.017 71.0833 755.595 75.675 748.026 78.375C754.357 81.0083 758.821 84.7667 761.427 89.65C764.097 94.475 765.425 101.867 765.425 111.825V121.367C765.425 127.867 765.674 132.258 766.173 134.575C766.921 138.242 768.65 140.942 771.385 142.675V146.242H739.838C739.124 143.728 738.505 141.188 737.98 138.625C737.231 134.586 736.827 130.487 736.773 126.375L736.58 113.175C736.459 104.117 734.843 98.075 731.746 95.05C728.705 92.0333 722.97 90.525 714.532 90.525H684.932V146.242H656.932V4.14167H724.209ZM814.74 102.375C815.609 108.875 817.322 113.717 819.864 116.933C824.513 122.783 832.484 125.708 843.778 125.708C850.534 125.708 856.028 124.933 860.243 123.392C868.246 120.433 872.252 114.942 872.252 106.908C872.252 102.217 870.265 98.5833 866.292 96.0167C862.326 93.5167 856.092 91.2917 847.59 89.3667L833.072 85.9917C818.81 82.65 808.941 79.0167 803.487 75.1C794.237 68.5417 789.62 58.2917 789.62 44.35C789.62 31.6167 794.084 21.05 803.021 12.625C811.949 4.20833 825.076 0 842.378 0C856.832 0 869.147 3.98333 879.323 11.95C889.554 19.8583 894.919 31.3667 895.418 46.4667H867.876C867.378 37.9167 863.782 31.8417 857.082 28.2417C852.618 25.8667 847.059 24.675 840.423 24.675C833.047 24.675 827.151 26.225 822.744 29.3083C818.344 32.3917 816.14 36.7 816.14 42.225C816.14 47.3083 818.312 51.0917 822.655 53.6C825.446 55.2667 831.398 57.2333 840.52 59.4833L864.152 65.3583C874.512 67.9333 882.331 71.3667 887.599 75.675C895.788 82.3583 899.882 92.0333 899.882 104.692C899.882 117.675 895.08 128.467 885.46 137.083C875.912 145.633 862.383 149.9 844.896 149.9C827.023 149.9 812.979 145.692 802.747 137.275C792.508 128.792 787.384 117.158 787.384 102.375H814.74ZM948.924 28.825V60.1583H982.603C988.619 60.1583 993.494 58.9917 997.218 56.6833C1001 54.3083 1002.89 50.125 1002.89 44.15C1002.89 37.5333 1000.41 33.1583 995.448 31.0417C991.169 29.5667 985.708 28.825 979.072 28.825H948.924ZM948.924 83.675V121.558H982.603C988.619 121.558 993.309 120.725 996.655 119.058C1002.74 115.975 1005.78 110.058 1005.78 101.317C1005.78 93.925 1002.83 88.85 996.937 86.0833C993.647 84.5417 989.03 83.7417 983.069 83.675H948.924ZM988.185 4.14167C1005 4.4 1016.91 9.45 1023.92 19.2833C1028.14 25.325 1030.25 32.55 1030.25 40.9667C1030.25 49.65 1028.14 56.6167 1023.92 61.8833C1021.57 64.8417 1018.09 67.55 1013.5 69.9833C1020.5 72.625 1025.78 76.8 1029.32 82.5167C1032.92 88.2417 1034.72 95.1833 1034.72 103.342C1034.72 111.758 1032.67 119.317 1028.57 126C1025.82 130.732 1022.14 134.809 1017.76 137.964C1013.38 141.118 1008.41 143.281 1003.17 144.308C996.769 145.644 990.251 146.292 983.721 146.242H921.568V4.14167H988.185ZM1160.24 29.3083H1087.66V59.475H1154.29V84.1667H1087.66V120.7H1163.58V146.25H1059.65V4.14167H1160.24V29.3083ZM1214.58 28.825V66.9917H1247.05C1253.5 66.9917 1258.35 66.225 1261.57 64.6833C1267.28 61.9833 1270.13 56.65 1270.13 48.6833C1270.13 40.0667 1267.37 34.2833 1261.85 31.3333C1258.75 29.6667 1254.09 28.825 1247.89 28.825H1214.58ZM1253.84 4.14167C1263.46 4.34167 1270.85 5.55833 1275.99 7.80833C1281.2 10.0583 1285.61 13.3667 1289.2 17.7417C1292.19 21.3333 1294.54 25.325 1296.28 29.6917C1298.01 34.0583 1298.88 39.0417 1298.88 44.6333C1298.88 51.3833 1297.24 58.0333 1293.95 64.5917C1290.67 71.0833 1285.24 75.675 1277.67 78.375C1284 81.0083 1288.46 84.7667 1291.07 89.65C1293.73 94.475 1295.07 101.867 1295.07 111.825V121.367C1295.07 127.867 1295.32 132.258 1295.81 134.575C1296.55 138.242 1298.29 140.942 1301.02 142.675V146.242H1269.48C1268.76 143.729 1268.14 141.188 1267.62 138.625C1266.87 134.587 1266.46 130.487 1266.41 126.375L1266.22 113.175C1266.1 104.117 1264.48 98.075 1261.38 95.05C1258.35 92.0333 1252.6 90.525 1244.17 90.525H1214.58V146.242H1186.57V4.14167H1253.84ZM1415.85 48.4917C1413.68 38.7833 1408.37 32.0083 1399.93 28.15C1395.22 26.025 1389.98 24.9667 1384.21 24.9667C1373.17 24.9667 1364.08 29.3 1356.95 37.9833C1349.88 46.5917 1346.34 59.575 1346.34 76.925C1346.34 94.4083 1350.18 106.783 1357.88 114.042C1365.57 121.308 1374.31 124.933 1384.12 124.933C1393.73 124.933 1401.61 122.075 1407.75 116.35C1413.89 110.575 1417.68 103.017 1419.1 93.7H1387.37V69.9833H1444.51V146.233H1425.53L1422.64 128.5C1417.12 135.25 1412.16 140 1407.75 142.767C1400.18 147.592 1390.87 150 1379.84 150C1361.66 150 1346.77 143.475 1335.17 130.433C1323.07 117.317 1317.03 99.3917 1317.03 76.6417C1317.03 53.6333 1323.14 35.1833 1335.36 21.3083C1347.57 7.425 1363.73 0.475 1383.84 0.475C1401.27 0.475 1415.25 5.075 1425.8 14.2667C1436.41 23.3917 1442.49 34.8 1444.04 48.4917H1415.85Z" fill="#FF2626"/>
</svg>
